<svg width="49" height="49" viewBox="0 0 49 50" version="1.1" xmlns="http://www.w3.org/2000/svg" xmlns:xlink="http://www.w3.org/1999/xlink">
<title>loading</title>
<desc>Created using Figma</desc>
<g id="Canvas" transform="translate(-1480 -6227)">
<g id="loading">
<use xlink:href="#path0_fill" transform="translate(1480.5 6227.98)" fill="#4f6eb5"/>
</g>
</g>
<defs>
<path id="path0_fill" fill-rule="evenodd" d="M 24.5 43.9937C 24.3339 43.9976 24.1671 44 24 44C 12.9543 44 4 35.0459 4 24C 4 12.9541 12.9543 4 24 4C 35.0457 4 44 12.9541 44 24C 44 24.0073 44 24.0142 44 24.0215L 48 24.0215C 48 24.0142 48 24.0073 48 24C 48 10.7451 37.2549 0 24 0C 10.7451 0 0 10.7451 0 24C 0 37.2549 10.7451 48 24 48C 24.1671 48 24.3337 47.9985 24.5 47.9951L 24.5 43.9937Z"/>
</defs>
</svg>
