<svg width="600" height="135" viewBox="0 0 600 135" version="1.1" xmlns="http://www.w3.org/2000/svg" xmlns:xlink="http://www.w3.org/1999/xlink">
<title>Playster Logo - White</title>
<desc>Created using Figma</desc>
<g id="Canvas" transform="translate(-2084 -3646)">
<g id="Playster Logo - White">
<g id="Fill 1">
<use xlink:href="#path0_fill" transform="translate(2084 3728.56)" fill="#4E6CB3"/>
</g>
<g id="Fill 2">
<use xlink:href="#path1_fill" transform="translate(2135.04 3646.46)" fill="#EE3D69"/>
</g>
<g id="Fill 3">
<use xlink:href="#path2_fill" transform="translate(2084 3646.46)" fill="#F7941D"/>
</g>
<g id="Fill 4">
<use xlink:href="#path3_fill" transform="translate(2164.96 3698.22)" fill="#90BD3E"/>
</g>
<g id="Fill 5">
<use xlink:href="#path4_fill" transform="translate(2135.07 3647.28)" fill="#CD2E55"/>
</g>
<g id="Fill 6">
<use xlink:href="#path5_fill" transform="translate(2164.97 3698.23)" fill="#779C3E"/>
</g>
<g id="Fill 7">
<use xlink:href="#path6_fill" transform="translate(2153.83 3728.6)" fill="#425EAB"/>
</g>
<g id="Fill 8">
<use xlink:href="#path7_fill" transform="translate(2084.82 3717.37)" fill="#CA7B29"/>
</g>
<g id="Combined Shape">
<use xlink:href="#path8_fill" transform="translate(2266.96 3671.87)" fill="#FFFFFF"/>
</g>
</g>
</g>
<defs>
<path id="path0_fill" fill-rule="evenodd" d="M 0 51.7579L 80.9631 51.7579L 80.9631 0L 0 0L 0 51.7579Z"/>
<path id="path1_fill" fill-rule="evenodd" d="M 0 51.7579L 80.9631 51.7579L 80.9631 0L 0 0L 0 51.7579Z"/>
<path id="path2_fill" fill-rule="evenodd" d="M 0 82.0987L 51.042 82.0987L 51.042 0L 0 0L 0 82.0987Z"/>
<path id="path3_fill" fill-rule="evenodd" d="M 0 82.0987L 51.042 82.0987L 51.042 0L 0 0L 0 82.0987Z"/>
<path id="path4_fill" fill-rule="evenodd" d="M 0 50.9155L 11.0761 50.9155L 0 0L 0 50.9155Z"/>
<path id="path5_fill" fill-rule="evenodd" d="M 0 0L 0 11.2315L 50.1989 0L 0 0Z"/>
<path id="path6_fill" fill-rule="evenodd" d="M 0 0L 11.0743 50.9119L 11.0743 0L 0 0Z"/>
<path id="path7_fill" fill-rule="evenodd" d="M 0 11.2332L 50.2007 11.2332L 50.2007 0L 0 11.2332Z"/>
<path id="path8_fill" fill-rule="evenodd" d="M 81.1904 83.3391L 71.9502 83.3391L 71.9502 0L 81.1904 0L 81.1904 83.3391ZM 31.7903 9.24536C 41.5254 9.24536 48.1785 15.7437 48.1785 25.1135C 48.1785 34.4836 41.5254 40.9819 31.7903 40.9819L 10.2278 40.9819L 10.2278 9.24536L 31.7903 9.24536ZM 0 0.000732422L 0 83.3398L 10.2278 83.3398L 10.2278 50.229L 33.0225 50.229C 49.4104 50.229 58.7756 38.7334 58.7756 25.114C 58.7756 11.4946 49.5337 0.000732422 33.0225 0.000732422L 0 0.000732422ZM 136.882 83.3394L 136.882 76.4663C 132.077 81.9634 125.178 84.8367 117.168 84.8367C 107.186 84.8367 96.4675 77.9653 96.4675 64.8457C 96.4675 51.228 107.065 44.9797 117.168 44.9797C 125.301 44.9797 132.077 47.605 136.882 53.1021L 136.882 42.2312C 136.882 34.2354 130.474 29.6128 121.849 29.6128C 114.704 29.6128 108.911 32.1116 103.614 37.9834L 99.3013 31.4851C 105.708 24.7388 113.348 21.4905 123.082 21.4905C 135.773 21.4905 146.124 27.2393 146.124 41.8562L 146.124 83.3394L 136.882 83.3394ZM 136.882 59.0989L 136.882 70.5945C 133.309 75.5918 127.024 78.0903 120.617 78.0903C 111.87 78.0903 105.831 72.5933 105.831 64.8457C 105.831 57.2249 111.87 51.7278 120.617 51.7278C 127.024 51.7278 133.309 54.2263 136.882 59.0989ZM 162.874 98.4568C 164.231 99.0815 166.447 99.4563 167.926 99.4563C 171.993 99.4563 174.704 98.082 176.798 93.0828L 180.741 83.9629L 155.852 22.9902L 165.954 22.9902L 185.669 72.4673L 205.508 22.9902L 215.49 22.9902L 185.669 95.5833C 182.096 104.329 176.059 107.704 168.174 107.829C 166.203 107.829 163.122 107.454 161.519 106.954L 162.874 98.4568ZM 224.722 68.5957L 220.039 75.342C 226.077 81.7136 234.209 84.8369 244.065 84.8369C 259.346 84.8369 267.354 76.7163 267.354 66.5969C 267.354 53.1531 255.288 50.2271 244.966 47.7241C 237.252 45.8538 230.513 44.2197 230.513 38.6084C 230.513 33.2361 235.564 29.1116 243.696 29.1116C 251.461 29.1116 257.866 32.3599 261.439 36.7344L 265.753 30.2378C 261.069 25.3635 253.923 21.4907 243.696 21.4907C 229.527 21.4907 221.64 29.3616 221.64 38.8582C 221.64 51.2251 232.906 54.0029 242.978 56.4868C 251.121 58.4949 258.484 60.3105 258.484 66.845C 258.484 72.8435 253.432 77.2161 244.313 77.2161C 236.18 77.2161 228.665 73.2183 224.722 68.5957ZM 284.229 70.718L 284.229 31.2358L 274.371 31.2358L 274.371 22.9902L 284.229 22.9902L 284.229 6.49731L 293.593 6.49731L 293.593 22.9902L 305.669 22.9902L 305.669 31.2358L 293.593 31.2358L 293.593 68.7192C 293.593 73.2168 295.564 76.4668 299.509 76.4668C 302.219 76.4668 304.56 75.2175 305.792 73.8433L 308.502 80.9644C 306.162 83.2131 302.835 84.8374 297.537 84.8374C 288.667 84.8374 284.229 79.7151 284.229 70.718ZM 344.477 21.4897C 327.473 21.4897 315.151 35.6089 315.151 53.1013C 315.151 71.968 327.843 84.8379 345.586 84.8379C 355.198 84.8379 363.206 81.4629 369.245 75.4661L 364.807 69.3442C 360.004 74.3416 353.226 77.0901 346.325 77.0901C 333.512 77.0901 325.748 67.5952 325.009 56.2263L 373.064 56.2263L 373.064 53.8528C 373.064 35.7339 362.467 21.4897 344.477 21.4897ZM 344.354 29.2373C 331.662 29.2373 325.378 40.1064 324.885 49.2283L 363.947 49.2283C 363.823 40.3562 357.908 29.2373 344.354 29.2373ZM 387.965 22.9907L 387.965 83.3386L 397.206 83.3386L 397.206 40.6079C 399.916 35.7339 407.68 30.9863 413.47 30.9863C 414.826 30.9863 415.936 31.1113 417.043 31.2363L 417.043 21.6165C 408.91 21.6165 402.011 26.364 397.206 32.6106L 397.206 22.9907L 387.965 22.9907Z"/>
</defs>
</svg>
