<svg width="216" height="49" viewBox="0 0 216 49" version="1.1" xmlns="http://www.w3.org/2000/svg" xmlns:xlink="http://www.w3.org/1999/xlink">
<title>Playster Logo - Black</title>
<desc>Created using Figma</desc>
<g id="Canvas" transform="translate(-3049 -8286)">
<g id="Playster Logo - Black">
<g id="Fill 1">
<use xlink:href="#path0_fill" transform="translate(3049.34 8316.25)" fill="#4E6CB3"/>
</g>
<g id="Fill 2">
<use xlink:href="#path0_fill" transform="translate(3067.65 8286.81)" fill="#EE3D69"/>
</g>
<g id="Fill 3">
<use xlink:href="#path1_fill" transform="translate(3049.34 8286.81)" fill="#F7941D"/>
</g>
<g id="Fill 4">
<use xlink:href="#path2_fill" transform="translate(3078.38 8305.37)" fill="#90BD3E"/>
</g>
<g id="Fill 5">
<use xlink:href="#path3_fill" transform="translate(3067.66 8287.11)" fill="#CD2E55"/>
</g>
<g id="Fill 6">
<use xlink:href="#path4_fill" transform="translate(3078.38 8305.38)" fill="#779C3E"/>
</g>
<g id="Fill 7">
<use xlink:href="#path5_fill" transform="translate(3074.38 8316.27)" fill="#425EAB"/>
</g>
<g id="Fill 8">
<use xlink:href="#path6_fill" transform="translate(3049.64 8312.24)" fill="#CA7B29"/>
</g>
<g id="Combined Shape">
<use xlink:href="#path7_fill" transform="translate(3114.95 8295.92)" fill="#6D6D6D"/>
</g>
</g>
</g>
<defs>
<path id="path0_fill" fill-rule="evenodd" d="M 0 18.56L 29.0328 18.56L 29.0328 0L 0 0L 0 18.56Z"/>
<path id="path1_fill" fill-rule="evenodd" d="M 0 29.44L 18.3033 29.44L 18.3033 0L 0 0L 0 29.44Z"/>
<path id="path2_fill" fill-rule="evenodd" d="M 0 29.44L 18.3033 29.44L 18.3033 0L 0 0L 0 29.44Z"/>
<path id="path3_fill" fill-rule="evenodd" d="M 0 18.2579L 3.97181 18.2579L 0 0L 0 18.2579Z"/>
<path id="path4_fill" fill-rule="evenodd" d="M 0 0L 0 4.02752L 18.001 0L 0 0Z"/>
<path id="path5_fill" fill-rule="evenodd" d="M 0 0L 3.97118 18.2566L 3.97118 0L 0 0Z"/>
<path id="path6_fill" fill-rule="evenodd" d="M 0 4.02816L 18.0016 4.02816L 18.0016 0L 0 4.02816Z"/>
<path id="path7_fill" fill-rule="evenodd" d="M 11.3997 3.31543C 14.8906 3.31543 17.2764 5.64551 17.2764 9.00586C 17.2764 12.3652 14.8906 14.6963 11.3997 14.6963L 3.66748 14.6963L 3.66748 3.31543L 11.3997 3.31543ZM 0 0L 0 29.8848L 3.66748 29.8848L 3.66748 18.0117L 11.8416 18.0117C 17.7183 18.0117 21.0767 13.8896 21.0767 9.00586C 21.0767 4.12207 17.7625 0 11.8416 0L 0 0ZM 29.1143 29.8848L 25.8008 29.8848L 25.8008 0L 29.1143 0L 29.1143 29.8848ZM 49.085 29.8848L 49.085 27.4199C 47.3618 29.3916 44.8877 30.4219 42.0154 30.4219C 38.4363 30.4219 34.5925 27.958 34.5925 23.2529C 34.5925 18.3701 38.3926 16.1289 42.0154 16.1289C 44.9319 16.1289 47.3618 17.0703 49.085 19.042L 49.085 15.1436C 49.085 12.2764 46.7869 10.6191 43.6943 10.6191C 41.1318 10.6191 39.0547 11.5146 37.155 13.6201L 35.6086 11.29C 37.906 8.87109 40.6458 7.70605 44.1362 7.70605C 48.6873 7.70605 52.3992 9.76758 52.3992 15.0088L 52.3992 29.8848L 49.085 29.8848ZM 43.2524 18.5488C 45.5498 18.5488 47.8037 19.4453 49.085 21.1924L 49.085 25.3145C 47.8037 27.1064 45.5498 28.002 43.2524 28.002C 40.1157 28.002 37.9502 26.0312 37.9502 23.2529C 37.9502 20.5205 40.1157 18.5488 43.2524 18.5488ZM 58.4055 35.3057C 58.8921 35.5303 59.6868 35.6641 60.2168 35.6641C 61.6755 35.6641 62.6475 35.1719 63.3984 33.3789L 64.8123 30.1084L 55.8872 8.24414L 59.51 8.24414L 66.5796 25.9863L 73.6938 8.24414L 77.2729 8.24414L 66.5796 34.2754C 65.2983 37.4111 63.1333 38.6221 60.3059 38.667C 59.5989 38.667 58.4944 38.5322 57.9194 38.3525L 58.4055 35.3057ZM 80.5837 24.5977L 78.9043 27.0166C 81.0698 29.3018 83.9856 30.4219 87.52 30.4219C 92.9998 30.4219 95.8713 27.5098 95.8713 23.8809C 95.8713 19.0596 91.5439 18.0107 87.8425 17.1133C 85.0767 16.4424 82.6602 15.8564 82.6602 13.8447C 82.6602 11.918 84.4717 10.4385 87.3875 10.4385C 90.1721 10.4385 92.469 11.6035 93.7502 13.1719L 95.2971 10.8428C 93.6177 9.09473 91.0552 7.70605 87.3875 7.70605C 82.3069 7.70605 79.4788 10.5283 79.4788 13.9336C 79.4788 18.3691 83.5188 19.3652 87.1306 20.2559C 90.0503 20.9756 92.6904 21.627 92.6904 23.9697C 92.6904 26.1211 90.8792 27.6885 87.6091 27.6885C 84.6926 27.6885 81.9976 26.2549 80.5837 24.5977ZM 101.923 25.3594L 101.923 11.2012L 98.3875 11.2012L 98.3875 8.24414L 101.923 8.24414L 101.923 2.33008L 105.28 2.33008L 105.28 8.24414L 109.611 8.24414L 109.611 11.2012L 105.28 11.2012L 105.28 24.6426C 105.28 26.2549 105.987 27.4209 107.402 27.4209C 108.374 27.4209 109.213 26.9727 109.655 26.4795L 110.627 29.0332C 109.787 29.8398 108.594 30.4219 106.695 30.4219C 103.514 30.4219 101.923 28.585 101.923 25.3594ZM 123.527 7.70605C 117.429 7.70605 113.011 12.7695 113.011 19.042C 113.011 25.8076 117.562 30.4219 123.925 30.4219C 127.371 30.4219 130.243 29.2119 132.408 27.0615L 130.817 24.8662C 129.095 26.6582 126.664 27.6436 124.19 27.6436C 119.595 27.6436 116.811 24.2393 116.546 20.1621L 133.778 20.1621L 133.778 19.3115C 133.778 12.8135 129.978 7.70605 123.527 7.70605ZM 123.483 10.4844C 118.932 10.4844 116.678 14.3818 116.502 17.6533L 130.509 17.6533C 130.465 14.4717 128.343 10.4844 123.483 10.4844ZM 139.122 8.24512L 139.122 29.8848L 142.435 29.8848L 142.435 14.5625C 143.407 12.8145 146.191 11.1123 148.268 11.1123C 148.746 11.1123 149.14 11.1562 149.531 11.1992L 149.549 11.2012L 149.549 7.75195C 146.632 7.75195 144.158 9.4541 142.435 11.6943L 142.435 8.24512L 139.122 8.24512Z"/>
</defs>
</svg>
